<?xml version="1.0" standalone="no"?>
<!DOCTYPE svg PUBLIC "-//W3C//DTD SVG 20010904//EN"
 "http://www.w3.org/TR/2001/REC-SVG-20010904/DTD/svg10.dtd">
<svg version="1.0" xmlns="http://www.w3.org/2000/svg"
 width="1024.000000pt" height="1024.000000pt" viewBox="0 0 1024.000000 1024.000000"
 preserveAspectRatio="xMidYMid meet">

<g transform="translate(0.000000,1024.000000) scale(0.100000,-0.100000)"
fill="#000000" stroke="none">
<path d="M4890 8519 c-461 -37 -905 -164 -1280 -366 -96 -51 -314 -195 -435
-286 -428 -323 -779 -769 -998 -1267 -211 -482 -295 -1046 -237 -1595 49 -463
228 -989 465 -1365 314 -498 810 -941 1323 -1182 406 -191 780 -288 1222 -318
732 -49 1547 210 2130 679 465 373 788 808 995 1341 236 604 279 1353 115
2002 -87 341 -225 646 -442 972 -185 278 -507 602 -803 808 -498 347 -1040
535 -1663 578 -171 11 -239 11 -392 -1z m480 -84 c304 -27 473 -61 710 -141
306 -104 511 -204 760 -370 644 -428 1096 -1054 1281 -1774 76 -294 105 -570
96 -918 -12 -490 -110 -888 -322 -1314 -340 -680 -911 -1206 -1615 -1488 -320
-128 -668 -206 -975 -218 -346 -15 -646 14 -945 89 -882 221 -1620 808 -2024
1608 -226 447 -329 851 -343 1346 -15 545 102 1070 340 1515 246 462 600 863
997 1130 112 75 301 191 368 224 171 86 501 202 701 245 126 28 375 66 481 74
114 9 349 5 490 -8z"/>
<path d="M5200 8110 c0 -49 -3 -90 -7 -90 -3 0 -14 7 -24 16 -10 9 -37 18 -61
21 -90 9 -151 -59 -151 -167 0 -131 107 -203 208 -140 l35 22 0 -21 c0 -17 6
-21 35 -21 l35 0 0 235 0 235 -35 0 -35 0 0 -90z m-34 -128 c20 -13 34 -50 34
-92 0 -33 -6 -48 -29 -71 -17 -16 -40 -29 -54 -29 -78 0 -116 121 -57 180 20
20 83 27 106 12z"/>
<path d="M6036 8034 c-9 -8 -16 -22 -16 -29 0 -21 29 -45 55 -45 47 0 54 67 9
84 -24 9 -31 8 -48 -10z"/>
<path d="M4698 8017 c-29 -20 -38 -22 -42 -11 -4 10 -15 12 -38 7 -18 -3 -35
-7 -36 -9 -2 -1 4 -70 15 -153 l18 -151 36 0 c20 0 38 2 40 5 3 2 0 37 -7 77
-19 106 -17 145 6 168 24 24 72 26 90 5 7 -8 19 -63 26 -122 8 -59 16 -109 19
-111 2 -2 20 -1 40 2 31 6 36 10 32 29 -3 12 -8 54 -12 92 -13 139 -38 182
-112 192 -30 4 -46 -1 -75 -20z"/>
<path d="M5400 8009 c-17 -17 -29 -36 -27 -43 6 -18 72 -19 87 -2 29 36 90 8
90 -41 0 -22 -3 -24 -29 -18 -87 19 -152 -1 -171 -51 -18 -47 -12 -84 19 -115
25 -24 38 -29 80 -29 27 0 53 5 56 10 9 15 25 12 25 -5 0 -8 9 -16 20 -16 11
-1 25 -2 32 -3 13 -1 36 147 37 235 1 69 -49 109 -138 109 -42 0 -54 -5 -81
-31z m124 -165 c21 -21 20 -36 -4 -62 -26 -27 -64 -28 -90 -2 -19 19 -18 40 3
68 13 17 73 15 91 -4z"/>
<path d="M4430 7973 c-14 -3 -28 -8 -32 -11 -4 -4 4 -45 18 -91 13 -46 24 -96
24 -112 0 -57 -68 -91 -102 -51 -9 9 -28 62 -43 117 -15 55 -28 102 -30 103
-8 8 -75 -20 -75 -31 0 -21 52 -182 71 -218 34 -67 121 -75 179 -17 23 22 30
25 30 13 0 -13 6 -15 33 -10 17 4 35 10 38 14 7 7 -72 302 -80 300 -3 -1 -17
-4 -31 -6z"/>
<path d="M5725 7958 c-3 -13 -19 -81 -35 -152 -17 -71 -30 -130 -28 -131 2 -2
19 -6 38 -10 l35 -6 18 78 c24 103 31 119 62 139 23 15 32 16 58 6 24 -9 33
-9 39 1 30 48 -25 92 -81 64 -29 -14 -31 -14 -31 3 0 10 -10 20 -22 24 -38 10
-47 7 -53 -16z"/>
<path d="M3894 7921 c-57 -26 -84 -64 -84 -118 0 -56 21 -97 58 -112 17 -7 67
-11 126 -9 87 3 99 1 112 -16 21 -29 17 -44 -16 -78 -27 -27 -36 -30 -71 -25
-22 3 -48 12 -57 20 -15 12 -22 12 -49 1 -18 -8 -33 -18 -33 -23 0 -5 16 -23
35 -40 30 -26 44 -31 88 -31 137 0 228 118 167 217 -30 49 -53 57 -164 55
-106 -2 -126 5 -126 43 0 50 83 83 126 50 23 -17 34 -18 69 -5 22 8 24 13 15
30 -30 56 -121 75 -196 41z"/>
<path d="M5942 7764 c-50 -140 -52 -149 -35 -162 42 -30 54 -14 110 138 29 79
49 148 45 152 -4 4 -21 10 -38 14 l-30 6 -52 -148z"/>
<path d="M6365 7812 c-77 -36 -145 -147 -145 -237 0 -65 31 -120 90 -160 38
-25 55 -30 106 -30 51 0 66 4 98 29 l38 29 -28 22 c-29 23 -29 23 -60 4 -93
-57 -186 33 -154 151 14 53 69 113 115 127 75 24 145 -24 145 -99 0 -32 4 -40
26 -48 49 -19 54 -14 54 48 0 103 -69 171 -183 179 -47 3 -72 -1 -102 -15z"/>
<path d="M3494 7541 c-47 -29 -74 -69 -74 -111 0 -47 6 -52 41 -34 20 10 29
22 29 39 0 22 40 65 61 65 5 0 19 -10 31 -22 21 -21 21 -22 2 -32 -10 -6 -38
-30 -61 -52 -33 -32 -43 -49 -43 -73 0 -39 23 -87 49 -101 61 -32 160 15 161
78 0 12 5 22 10 22 6 0 10 -4 10 -10 0 -15 15 -12 41 8 l22 19 -63 92 c-34 50
-74 100 -88 111 -31 25 -88 26 -128 1z m150 -157 c23 -22 20 -57 -8 -83 -32
-30 -68 -25 -80 11 -13 36 13 67 71 87 1 1 9 -6 17 -15z"/>
<path d="M6678 7500 c-10 -6 -18 -17 -18 -24 0 -18 43 -36 69 -29 47 12 88
-45 61 -87 -8 -12 -13 -11 -37 11 -62 58 -124 66 -173 22 -66 -60 -43 -152 45
-175 26 -7 41 -16 38 -24 -4 -11 32 -44 48 -44 11 0 147 183 158 213 14 37 -6
87 -49 117 -36 26 -115 37 -142 20z m36 -161 c30 -24 32 -36 9 -61 -20 -22
-70 -23 -95 -1 -23 21 -23 38 2 63 26 26 51 25 84 -1z"/>
<path d="M4910 7429 c-373 -33 -764 -195 -1095 -454 -100 -78 -281 -264 -363
-372 -268 -353 -407 -769 -406 -1213 1 -525 166 -974 508 -1386 281 -338 716
-592 1181 -691 121 -25 146 -27 375 -28 265 0 295 4 545 67 221 56 374 125
569 256 244 164 469 389 623 622 192 291 315 668 332 1020 17 361 -36 670
-165 973 -121 282 -381 608 -636 797 -168 124 -397 249 -558 303 -274 92 -615
132 -910 106z m625 -98 c191 -41 329 -88 479 -163 217 -109 339 -193 490 -338
337 -324 544 -722 601 -1157 17 -131 20 -419 5 -543 -74 -613 -404 -1135 -937
-1484 -115 -75 -292 -163 -403 -200 -199 -65 -451 -106 -659 -106 -245 0 -473
43 -705 134 -268 105 -475 237 -675 430 -247 240 -413 506 -521 832 -169 514
-135 1036 99 1519 165 343 433 629 782 836 198 117 391 194 611 243 156 34
153 34 433 31 237 -2 258 -4 400 -34z"/>
<path d="M5024 7097 c-44 -78 -147 -258 -229 -399 l-148 -258 -488 0 c-403 0
-489 -2 -489 -13 0 -13 95 -181 285 -507 43 -74 105 -182 136 -239 l57 -104
-71 -121 c-38 -66 -118 -202 -177 -301 -139 -234 -230 -400 -230 -419 0 -15
48 -16 488 -15 l487 1 112 -183 c61 -100 165 -273 230 -385 65 -112 120 -203
123 -203 3 -1 14 16 26 37 39 70 317 537 378 634 l61 97 498 1 c345 0 497 3
497 11 0 6 -11 25 -24 42 -13 18 -119 199 -236 402 -117 204 -216 374 -221
379 -16 17 -10 33 55 143 70 118 357 610 399 684 14 26 23 49 20 53 -3 3 -227
6 -497 6 l-491 0 -229 400 c-125 220 -231 400 -235 400 -3 0 -42 -65 -87 -143z
m275 -326 c89 -156 169 -294 178 -307 8 -13 11 -24 7 -24 -88 -3 -739 2 -742
5 -2 2 62 118 143 257 81 139 166 284 187 321 36 62 41 67 52 50 7 -10 86
-146 175 -302z m-699 -416 c0 -3 -23 -42 -51 -88 -28 -45 -88 -147 -134 -227
-45 -80 -114 -198 -153 -263 l-71 -119 -22 44 c-12 23 -57 101 -99 173 -121
202 -270 466 -270 476 0 5 163 9 400 9 220 0 400 -2 400 -5z m956 -33 c29 -52
192 -331 287 -492 45 -74 95 -161 113 -192 l32 -57 -95 -163 c-53 -90 -157
-265 -231 -390 l-136 -228 -417 0 -416 0 -64 113 c-35 61 -120 207 -189 322
-70 116 -144 240 -164 277 l-37 67 39 68 c22 37 101 176 177 308 75 132 159
277 187 323 l49 82 422 0 422 0 21 -38z m882 30 c-1 -4 -28 -50 -59 -102 -31
-52 -117 -201 -192 -330 -75 -129 -140 -241 -145 -249 -6 -11 -25 14 -74 95
-110 185 -327 560 -334 577 -6 16 24 17 401 17 224 0 405 -3 403 -8z m-2222
-884 c9 -18 65 -114 124 -213 146 -247 260 -443 260 -450 0 -3 -180 -5 -400
-5 -220 0 -400 4 -400 8 0 14 124 241 206 377 44 72 102 172 129 223 28 50 53
92 57 92 4 0 15 -15 24 -32z m1917 -142 c110 -195 280 -480 298 -502 6 -8 10
-17 7 -19 -3 -3 -188 -4 -411 -3 l-407 3 94 160 c52 88 143 244 203 347 59
103 110 188 113 188 3 0 49 -78 103 -174z m-664 -628 c-7 -13 -47 -79 -89
-148 -42 -69 -118 -198 -170 -287 -52 -90 -97 -163 -100 -163 -3 0 -41 62 -84
138 -44 75 -118 200 -164 277 -47 77 -94 155 -104 173 l-20 32 371 0 372 0
-12 -22z"/>
<path d="M4770 5844 c-96 -85 -191 -170 -210 -190 l-35 -35 22 -18 21 -18 -59
-84 c-32 -46 -58 -87 -59 -91 0 -5 12 -8 26 -8 81 0 291 -76 418 -151 l71 -43
95 3 c84 2 350 -28 393 -45 22 -8 296 444 297 488 0 10 -9 22 -20 28 -11 6
-20 20 -20 30 0 11 -4 20 -10 20 -5 0 -10 9 -10 20 0 11 -6 23 -14 26 -8 3
-12 13 -9 23 2 9 -2 23 -10 29 -22 19 -174 26 -242 12 -73 -15 -104 -30 -156
-77 -22 -20 -41 -34 -42 -32 -1 2 -11 21 -21 42 -39 76 -202 229 -242 226 -5
0 -88 -70 -184 -155z m276 54 c71 -67 144 -165 144 -195 0 -10 -32 -67 -71
-128 -39 -60 -89 -146 -111 -189 l-40 -79 -26 34 c-87 112 -223 222 -329 266
-24 10 -43 20 -43 23 1 3 22 22 48 42 26 21 112 94 192 162 80 69 150 125 157
126 7 0 42 -28 79 -62z m574 -99 c0 -6 -26 -48 -58 -92 -32 -45 -96 -137 -142
-204 -77 -114 -86 -123 -115 -123 -50 0 -184 -37 -250 -69 -33 -17 -61 -28
-63 -26 -4 4 84 163 134 241 122 191 178 252 252 274 42 13 242 12 242 -1z
m34 -61 c-4 -7 -40 -58 -79 -113 -39 -55 -104 -148 -144 -206 l-72 -107 -112
-5 c-62 -3 -123 -8 -137 -12 l-25 -6 25 15 c28 16 163 46 209 46 26 0 38 11
93 88 141 196 230 312 239 312 6 0 7 -6 3 -12z m26 -44 c0 -4 -20 -36 -43 -73
-24 -36 -88 -133 -141 -214 l-98 -149 -61 7 c-93 11 -116 26 -34 22 l69 -3
146 208 c129 184 162 225 162 202z m40 -41 c0 -13 -90 -172 -168 -296 -45 -71
-84 -137 -87 -148 -6 -17 -12 -19 -33 -14 -70 18 -196 36 -287 42 -81 6 -94 8
-65 15 39 8 258 -8 296 -22 16 -7 27 -5 37 5 8 7 76 106 151 219 120 180 156
226 156 199z m-1000 -143 c30 -21 75 -56 100 -79 l45 -42 -45 26 c-81 48 -148
76 -211 89 l-61 12 26 31 c26 31 27 31 59 15 17 -8 57 -32 87 -52z m-78 -49
c37 -11 95 -34 129 -52 60 -33 169 -122 169 -140 0 -4 -33 9 -72 31 -96 51
-210 96 -294 116 -38 8 -71 17 -73 20 -9 9 33 44 53 44 12 0 51 -9 88 -19z"/>
<path d="M4280 3801 l0 -140 43 -6 c23 -4 60 -5 82 -3 33 2 41 7 43 26 3 21 0
22 -57 22 l-61 0 0 35 0 34 58 3 c49 3 57 6 57 23 0 17 -8 20 -60 23 l-60 3 1
37 1 37 62 3 c53 3 61 6 61 22 0 18 -7 20 -85 20 l-85 0 0 -139z"/>
<path d="M4540 3927 c-14 -7 -28 -26 -34 -45 -13 -45 15 -82 77 -102 60 -20
72 -32 58 -59 -14 -24 -56 -28 -80 -7 -9 7 -26 17 -38 20 -32 10 -31 -23 2
-54 36 -34 106 -34 140 1 31 30 36 80 11 107 -9 11 -35 25 -59 31 -71 22 -89
52 -42 73 21 10 29 8 48 -10 48 -45 85 -18 38 28 -32 33 -77 39 -121 17z"/>
<path d="M4720 3920 c0 -17 7 -20 40 -20 l40 0 0 -120 0 -120 25 0 25 0 0 120
0 120 40 0 c33 0 40 3 40 20 0 19 -7 20 -105 20 -98 0 -105 -1 -105 -20z"/>
<path d="M5145 3915 c-24 -23 -31 -45 -19 -57 9 -10 44 4 44 17 0 16 25 26 45
19 9 -4 15 -19 15 -39 0 -26 -12 -47 -61 -100 -76 -84 -75 -99 6 -102 81 -3
105 3 105 27 0 17 -7 20 -50 20 -27 0 -50 2 -50 5 0 3 15 19 34 35 39 34 66
86 66 124 0 37 -41 76 -80 76 -19 0 -40 -9 -55 -25z"/>
<path d="M5381 3924 c-46 -32 -63 -116 -40 -197 19 -70 97 -93 147 -44 23 23
27 37 30 101 3 53 0 81 -12 104 -27 52 -80 67 -125 36z m75 -45 c14 -16 19
-36 19 -84 0 -87 -32 -119 -77 -78 -14 12 -18 31 -18 77 0 93 34 131 76 85z"/>
<path d="M5620 3878 c-56 -86 -68 -129 -47 -172 20 -44 73 -64 118 -46 84 35
77 145 -10 175 l-31 10 25 37 c30 45 31 58 5 58 -14 0 -33 -20 -60 -62z m78
-121 c4 -34 -13 -57 -42 -57 -28 0 -46 18 -46 45 0 30 20 46 55 43 25 -2 31
-8 33 -31z"/>
<path d="M5852 3844 c-40 -53 -72 -103 -72 -110 0 -10 17 -14 65 -14 l65 0 0
-30 c0 -23 4 -30 20 -30 16 0 20 7 20 30 0 23 4 30 20 30 13 0 20 7 20 20 0
13 -7 20 -20 20 -17 0 -19 8 -22 87 -2 48 -8 88 -13 90 -6 2 -43 -40 -83 -93z
m58 -44 c0 -39 -1 -40 -36 -40 -38 0 -38 1 0 53 27 37 36 34 36 -13z"/>
<path d="M4952 3708 c-28 -28 2 -67 34 -43 15 11 17 18 8 31 -14 23 -27 27
-42 12z"/>
<path d="M3291 7373 c-19 -20 -31 -42 -31 -58 0 -22 -3 -25 -13 -16 -11 8 -19
5 -37 -14 l-23 -24 108 -116 c59 -63 111 -115 115 -115 3 0 17 11 30 25 l23
25 -24 27 c-13 16 -45 51 -71 80 -55 59 -64 106 -28 138 24 22 24 24 1 54
l-19 25 -31 -31z"/>
<path d="M6875 7205 c-93 -88 -108 -107 -99 -122 27 -43 39 -40 118 35 78 74
104 85 147 62 45 -25 15 -71 -114 -177 -39 -31 -39 -31 -22 -57 10 -14 22 -26
27 -26 5 0 44 29 86 65 86 72 128 84 156 43 22 -31 6 -54 -92 -133 l-83 -66
21 -30 21 -29 62 47 c107 84 157 136 157 167 0 56 -52 116 -100 116 -15 0 -20
7 -20 25 0 56 -43 105 -90 105 -17 0 -20 4 -16 17 6 15 -28 64 -43 63 -3 -1
-55 -48 -116 -105z"/>
<path d="M3089 7144 l-24 -25 55 -47 c96 -82 120 -109 120 -136 0 -30 -32 -66
-59 -66 -10 0 -59 32 -109 70 l-91 70 -25 -27 c-14 -15 -26 -30 -26 -33 1 -6
110 -90 173 -132 45 -31 91 -36 125 -12 28 19 52 65 52 99 0 21 4 25 19 20 13
-4 23 2 35 19 16 25 15 26 -31 68 -26 24 -75 69 -109 101 -33 31 -65 57 -71
57 -5 0 -20 -12 -34 -26z"/>
<path d="M7198 6791 c-75 -47 -157 -98 -183 -113 l-46 -28 18 -27 c9 -16 18
-30 19 -32 2 -2 30 14 64 34 34 20 62 36 64 34 1 -2 8 -24 15 -48 15 -53 60
-98 106 -107 59 -11 167 53 201 119 32 61 -5 169 -62 183 -16 4 -23 11 -20 21
7 16 -14 53 -29 52 -5 -1 -72 -40 -147 -88z m177 -46 c26 -25 32 -63 15 -95
-13 -25 -90 -70 -119 -70 -31 0 -71 43 -71 78 0 34 13 51 65 86 49 32 79 33
110 1z"/>
<path d="M2842 6820 c-40 -25 -66 -81 -59 -128 5 -29 4 -32 -13 -27 -24 8 -58
-49 -38 -61 44 -28 346 -184 355 -184 5 0 17 13 26 30 l18 29 -56 28 -56 29
30 22 c44 33 64 77 58 129 -6 52 -29 80 -96 117 -69 37 -127 43 -169 16z m121
-76 c51 -26 77 -55 77 -86 0 -36 -40 -78 -75 -78 -30 0 -105 36 -122 59 -20
26 -15 70 12 96 28 29 63 32 108 9z"/>
<path d="M2542 6564 c-36 -25 -24 -84 18 -84 23 0 53 35 48 56 -1 9 -12 23
-23 30 -18 12 -24 11 -43 -2z"/>
<path d="M7445 6505 c-108 -53 -147 -89 -147 -138 0 -40 25 -83 53 -92 22 -7
24 -16 8 -32 -8 -8 -7 -17 3 -34 7 -13 13 -25 14 -27 0 -1 63 24 140 57 133
56 139 60 137 87 -1 15 -6 31 -10 35 -5 5 -50 -9 -101 -31 -51 -22 -103 -40
-116 -40 -41 0 -66 43 -50 85 6 14 146 91 196 107 15 5 -9 68 -26 67 -6 0 -51
-20 -101 -44z"/>
<path d="M2658 6487 l-16 -34 140 -69 139 -69 19 25 c11 14 20 30 20 35 0 10
-260 145 -278 145 -5 0 -15 -15 -24 -33z"/>
<path d="M2599 6368 c-17 -34 -20 -48 -12 -69 9 -23 8 -26 -8 -22 -11 3 -19 1
-19 -3 0 -5 -3 -18 -6 -30 -5 -19 8 -27 141 -79 96 -38 149 -55 156 -48 5 5
11 23 12 38 2 27 -3 31 -88 67 -49 21 -99 47 -109 58 -18 17 -18 23 -7 61 12
38 11 44 -5 56 -27 19 -32 17 -55 -29z"/>
<path d="M7581 6164 c-22 -28 -29 -59 -33 -139 -3 -43 -6 -50 -25 -53 -41 -6
-69 64 -38 98 12 13 13 23 4 48 -13 38 -19 39 -48 8 -61 -65 -20 -206 65 -222
75 -14 114 32 114 137 0 80 16 103 49 70 23 -23 26 -43 11 -72 -8 -14 -6 -27
6 -51 l17 -32 23 28 c43 49 27 152 -28 190 -36 26 -93 21 -117 -10z"/>
<path d="M2362 6013 c-23 -75 -40 -139 -38 -140 2 -2 19 -6 38 -10 l35 -5 13
52 c7 28 19 54 26 57 8 3 89 -13 181 -36 91 -23 167 -40 169 -38 2 2 5 18 6
37 l3 34 -130 32 c-71 17 -149 37 -172 43 l-42 11 13 45 c8 24 11 46 8 49 -3
4 -19 6 -37 6 l-31 0 -42 -137z"/>
<path d="M7695 5538 c-20 -63 -49 -144 -54 -150 -3 -4 -46 -11 -95 -15 l-89
-8 72 -49 c39 -27 71 -54 71 -60 0 -5 -12 -48 -26 -94 -14 -46 -23 -87 -20
-90 4 -3 19 6 34 19 15 14 46 40 70 58 l42 33 76 -57 c42 -31 78 -55 80 -53 2
3 -7 42 -21 88 -14 46 -25 89 -25 95 0 6 32 33 71 60 40 27 68 50 63 51 -5 2
-48 5 -95 9 l-85 6 -28 85 c-27 84 -33 95 -41 72z"/>
<path d="M2514 5458 l-29 -83 -92 -3 c-51 -1 -93 -6 -92 -10 0 -4 31 -27 70
-52 42 -27 69 -52 69 -63 0 -9 -9 -48 -19 -85 -23 -81 -24 -85 -22 -94 0 -4
33 17 72 47 39 30 73 55 76 55 2 0 36 -25 74 -56 39 -31 72 -54 74 -52 2 2 -7
41 -21 88 -13 46 -24 89 -24 96 0 6 33 33 73 60 l72 49 -94 10 -94 10 -26 77
c-14 42 -29 79 -32 83 -4 3 -19 -32 -35 -77z"/>
<path d="M2676 4527 c-18 -18 -24 -38 -29 -97 -7 -90 -12 -107 -40 -116 -15
-5 -27 1 -44 20 -27 32 -29 58 -7 80 12 12 13 23 6 44 -11 35 -29 34 -56 -1
-44 -59 -10 -174 61 -203 28 -12 38 -12 67 0 45 19 66 61 73 147 7 80 22 102
53 74 21 -19 27 -69 11 -80 -10 -6 18 -65 31 -65 13 0 38 58 38 90 0 102 -102
169 -164 107z"/>
<path d="M7494 4525 c-12 -18 -15 -38 -11 -65 4 -32 1 -42 -13 -50 -22 -12
-44 -64 -36 -85 3 -9 -3 -24 -14 -35 -11 -11 -20 -26 -20 -33 0 -7 48 -36 107
-65 l108 -52 17 22 c9 12 14 27 11 32 -3 5 -38 24 -78 42 -39 18 -77 40 -84
48 -16 19 -11 46 11 60 17 10 23 8 184 -60 8 -4 34 34 34 51 0 2 -35 17 -77
35 -92 37 -118 59 -109 88 11 34 39 34 108 4 100 -45 103 -46 116 -17 12 26
11 27 -73 66 -104 48 -156 52 -181 14z"/>
<path d="M2742 4214 c2 -18 12 -33 27 -41 36 -17 47 -42 27 -62 -15 -15 -19
-14 -42 17 -66 84 -164 80 -164 -7 0 -23 9 -41 32 -64 18 -18 31 -36 30 -41
-5 -16 10 -46 23 -46 7 0 29 9 47 21 18 11 54 34 80 49 50 31 65 60 54 105 -9
35 -56 83 -89 91 -27 6 -28 5 -25 -22z m-38 -105 c35 -28 34 -49 -3 -49 -36 0
-67 36 -49 57 14 18 21 17 52 -8z"/>
<path d="M7359 4165 c-28 -15 -59 -70 -59 -103 0 -22 24 -47 38 -38 6 3 13 22
16 41 5 26 13 36 31 41 34 8 50 -4 32 -24 -28 -33 -48 -83 -41 -105 24 -80
123 -74 155 10 5 13 6 30 2 36 -4 6 0 8 10 4 10 -4 21 3 31 18 15 23 15 25
-27 53 -46 32 -141 82 -154 82 -4 -1 -20 -7 -34 -15z m134 -107 c10 -29 -31
-87 -53 -73 -15 10 -12 46 7 67 19 21 39 23 46 6z"/>
<path d="M3009 3923 c-41 -38 -100 -90 -132 -117 -31 -27 -57 -53 -57 -59 0
-6 7 -19 16 -28 16 -18 21 -14 106 62 50 44 92 79 94 76 2 -2 -14 -66 -37
-142 l-41 -137 21 -21 c18 -19 22 -19 38 -6 87 74 253 223 253 228 -1 12 -28
41 -39 41 -6 0 -47 -34 -91 -76 -44 -43 -82 -75 -85 -72 -2 2 14 66 37 141 39
133 40 138 23 157 -10 11 -21 20 -25 20 -4 0 -40 -30 -81 -67z"/>
<path d="M7020 3925 c-13 -14 -22 -27 -19 -28 127 -109 295 -237 309 -237 8 0
35 49 29 53 -2 2 -30 23 -61 46 -63 46 -82 72 -73 101 10 33 52 24 121 -25 34
-25 66 -45 70 -45 8 0 33 31 34 42 0 12 -150 108 -178 114 -35 7 -79 -26 -89
-66 l-8 -29 -56 49 -56 49 -23 -24z"/>
<path d="M2738 3911 c-20 -16 -21 -22 -10 -45 8 -18 19 -26 36 -26 31 0 51 32
37 59 -15 28 -37 32 -63 12z"/>
<path d="M6830 3720 l-25 -20 65 -62 c204 -197 221 -211 247 -197 12 7 23 18
23 25 0 7 -29 39 -64 71 -73 66 -85 90 -58 123 16 20 21 21 43 10 13 -7 52
-38 87 -68 61 -53 63 -54 82 -37 11 10 20 23 19 29 0 12 -119 114 -157 134
-47 27 -122 -7 -122 -55 0 -33 -10 -29 -60 22 -24 25 -47 45 -50 45 -3 0 -16
-9 -30 -20z"/>
<path d="M3233 3620 c-13 -5 -23 -13 -23 -18 0 -17 32 -37 55 -34 30 4 49 -21
41 -54 l-7 -27 -27 25 c-59 55 -104 62 -151 22 -41 -34 -42 -75 -2 -115 16
-16 39 -29 50 -29 13 0 21 -6 21 -18 0 -9 8 -22 18 -29 16 -9 28 0 90 68 56
62 72 87 72 110 0 37 -25 76 -61 95 -32 16 -44 17 -76 4z m-20 -121 c29 -16
36 -27 30 -50 -7 -26 -40 -33 -68 -15 -29 19 -33 51 -7 65 22 13 19 13 45 0z"/>
<path d="M6791 3515 c-65 -55 -61 -147 9 -217 31 -32 45 -38 79 -38 34 0 48 7
86 43 39 38 45 49 45 84 0 50 -6 56 -36 36 -16 -10 -24 -25 -24 -44 0 -36 -38
-64 -75 -55 -28 7 -75 71 -75 103 0 34 28 56 66 50 24 -4 37 0 50 14 17 18 17
20 -2 34 -31 23 -88 19 -123 -10z"/>
<path d="M3493 3323 c-93 -128 -100 -139 -86 -155 9 -10 19 -18 23 -18 5 0 24
22 45 48 l37 49 47 -25 c58 -31 106 -25 149 18 59 58 45 125 -37 182 -30 21
-59 38 -66 38 -6 0 -56 -62 -112 -137z m170 39 c9 -8 17 -26 17 -40 0 -55 -64
-81 -110 -44 l-21 17 36 48 c36 48 42 49 78 19z"/>
<path d="M6479 3393 c-13 -9 -25 -17 -27 -19 -2 -1 10 -49 26 -106 16 -56 38
-140 48 -185 10 -46 23 -83 29 -83 5 0 20 8 33 18 20 16 22 22 13 46 -19 48
-13 63 40 101 l51 36 33 -25 c41 -31 43 -31 79 -2 l29 24 -34 17 c-19 10 -88
54 -154 99 -66 45 -125 85 -131 89 -6 3 -22 -1 -35 -10z m109 -115 c26 -18 49
-34 52 -36 7 -5 -52 -52 -65 -52 -6 0 -16 19 -22 43 -7 23 -15 50 -18 60 -10
24 0 21 53 -15z"/>
<path d="M3295 3306 c-26 -40 5 -78 46 -56 25 14 25 56 0 70 -27 14 -28 13
-46 -14z"/>
<path d="M3970 3203 c-23 -9 -50 -35 -50 -48 0 -21 50 -28 69 -10 23 20 44 19
66 -5 25 -27 13 -64 -27 -83 -18 -8 -68 -29 -111 -47 -58 -24 -81 -39 -92 -61
-18 -34 -18 -39 -4 -39 6 0 49 -18 96 -40 66 -31 89 -37 99 -29 26 21 14 37
-51 65 -36 16 -65 32 -65 35 0 4 41 22 90 40 127 45 164 95 128 174 -20 44
-94 68 -148 48z"/>
<path d="M3707 3133 c-15 -16 -13 -19 44 -50 48 -27 64 -31 75 -22 24 19 16
33 -36 62 -59 32 -61 32 -83 10z"/>
<path d="M5995 3120 c-13 -14 -16 -28 -11 -55 4 -22 3 -35 -4 -35 -5 0 -10
-11 -10 -24 0 -17 6 -26 21 -28 17 -2 27 -18 43 -70 26 -80 49 -108 88 -108
32 0 98 25 98 37 0 4 -7 16 -14 26 -12 16 -17 16 -35 5 -31 -19 -53 -1 -77 68
-23 63 -19 84 17 84 20 0 25 25 11 48 -7 10 -15 10 -36 2 -15 -5 -29 -10 -30
-10 -2 0 -9 18 -16 40 -15 46 -20 48 -45 20z"/>
<path d="M4514 3046 c-91 -41 -83 -145 14 -195 52 -26 75 -55 67 -81 -16 -50
-95 -43 -122 10 -12 23 -55 44 -67 32 -24 -23 15 -99 59 -118 96 -40 195 9
195 96 0 48 -21 75 -86 111 -53 30 -59 38 -54 69 7 48 110 32 110 -17 0 -17
51 -23 57 -7 26 67 -93 136 -173 100z"/>
<path d="M5386 3041 c-3 -5 3 -75 14 -157 11 -82 23 -168 26 -191 5 -39 8 -43
34 -43 28 0 29 2 32 57 2 31 8 58 13 60 6 2 28 -19 49 -47 32 -42 43 -50 71
-50 19 0 36 4 39 8 2 4 -22 38 -55 75 -32 38 -59 70 -59 73 0 2 16 27 36 54
20 28 34 53 31 56 -3 3 -20 2 -38 -1 -27 -5 -42 -18 -69 -58 l-34 -52 -7 45
c-4 25 -10 75 -14 113 -6 66 -7 67 -35 67 -16 0 -31 -4 -34 -9z"/>
<path d="M4770 3033 c-1 -5 -13 -91 -29 -193 -16 -102 -28 -186 -27 -186 0 -1
15 -5 33 -8 l31 -7 13 91 c16 115 45 152 93 117 20 -15 21 -27 11 -134 l-8
-83 31 0 c35 0 38 7 48 132 5 72 4 92 -10 112 -19 30 -76 44 -113 27 l-25 -11
7 75 7 75 -31 0 c-17 0 -31 -3 -31 -7z"/>
<path d="M5252 3018 c-25 -25 -6 -68 30 -68 26 0 45 44 28 65 -15 18 -41 20
-58 3z"/>
<path d="M5763 2975 c-122 -53 -77 -265 57 -265 44 0 93 23 118 55 27 34 30
111 7 159 -29 61 -109 83 -182 51z m100 -55 c30 -24 44 -87 27 -120 -16 -29
-54 -42 -84 -29 -58 27 -63 142 -6 162 27 10 37 7 63 -13z"/>
<path d="M6276 2934 c-21 -21 -20 -41 4 -61 12 -11 20 -30 20 -50 0 -43 24
-44 39 -2 17 49 13 86 -11 109 -26 24 -32 25 -52 4z"/>
<path d="M5257 2903 c-3 -5 -2 -66 2 -138 l6 -130 34 -3 33 -3 -7 133 c-4 73
-9 136 -12 141 -2 4 -15 7 -28 7 -13 0 -26 -3 -28 -7z"/>
<path d="M5047 2886 c-3 -8 -7 -70 -8 -138 l-1 -123 29 -3 30 -3 5 92 c5 81 9
95 29 111 12 11 34 18 48 16 22 -3 27 1 29 25 4 35 -17 44 -59 23 -39 -20 -39
-20 -39 -1 0 20 -56 20 -63 1z"/>
<path d="M4117 2852 c-9 -10 -17 -32 -17 -49 0 -20 -7 -36 -22 -46 -22 -14
-22 -16 -5 -22 27 -11 83 19 101 53 27 52 -20 105 -57 64z"/>
</g>
</svg>
